<svg width="218" height="305" viewBox="0 0 218 305" fill="none" xmlns="http://www.w3.org/2000/svg">
<path d="M217 295.411C217 300.131 213.001 304 208.098 304H10.0246C5.13275 304 1.13501 300.131 1.13501 295.411V9.83637C1.13501 5.11065 5.13275 1.24756 10.0246 1.24756H208.095C213 1.24756 216.998 5.11065 216.998 9.83637V295.411H217Z" fill="white" stroke="black" stroke-width="0.623246"/>
<path fill-rule="evenodd" clip-rule="evenodd" d="M10.586 3.02466C6.42148 3.02466 3.06812 6.16989 3.06812 10.0792V295.026C3.06812 298.934 6.42148 302.079 10.5847 302.079H207.653C211.818 302.079 215.168 298.935 215.168 295.027V10.0792C215.168 6.17115 211.818 3.02466 207.653 3.02466H10.5834H10.586Z" fill="white"/>
<path d="M10.5857 3.02542C6.42206 3.02542 3.06836 6.16965 3.06836 10.079V295.027C3.06836 298.936 6.42206 302.08 10.5857 302.08H207.653C211.819 302.08 215.169 298.936 215.169 295.027V10.079C215.169 6.16965 211.819 3.02417 207.653 3.02417H10.5857V3.02542Z" stroke="black" stroke-width="3.555" stroke-miterlimit="10"/>
<path fill-rule="evenodd" clip-rule="evenodd" d="M12.7136 9.94653C11.664 9.94653 10.8218 10.7382 10.8218 11.7214V293.384C10.8218 294.367 11.664 295.16 12.7136 295.16H205.045C206.094 295.16 206.939 294.367 206.939 293.384V11.7214C206.939 10.7382 206.094 9.94653 205.045 9.94653H12.7136Z" fill="white"/>
<path d="M12.7148 9.94507C11.6651 9.94507 10.8215 10.7377 10.8215 11.7203V293.385C10.8215 294.367 11.6638 295.16 12.7135 295.16H205.046C206.095 295.16 206.94 294.367 206.94 293.385V11.7216C206.94 10.7377 206.095 9.94632 205.046 9.94632H12.7135L12.7148 9.94507Z" stroke="black" stroke-width="3.33811" stroke-miterlimit="10"/>
<path fill-rule="evenodd" clip-rule="evenodd" d="M50.7704 47.0868C50.6522 47.0848 50.5347 47.1055 50.4248 47.1475C50.3149 47.1895 50.2147 47.2522 50.1299 47.3318C50.0451 47.4114 49.9775 47.5065 49.9308 47.6115C49.8842 47.7165 49.8595 47.8293 49.8582 47.9436V258.062C49.8582 258.538 50.265 258.919 50.7704 258.919H165.067C165.185 258.921 165.303 258.9 165.413 258.858C165.523 258.816 165.623 258.754 165.708 258.674C165.793 258.594 165.86 258.499 165.907 258.394C165.954 258.289 165.978 258.176 165.979 258.062V47.9436C165.978 47.8293 165.954 47.7163 165.907 47.6113C165.86 47.5062 165.793 47.4111 165.708 47.3314C165.623 47.2518 165.523 47.1891 165.413 47.1472C165.303 47.1052 165.185 47.0847 165.067 47.0868H50.7704Z" fill="black"/>
<path d="M50.7702 47.087C50.6519 47.0852 50.5345 47.106 50.4245 47.1481C50.3146 47.1902 50.2144 47.2528 50.1296 47.3324C50.0449 47.4119 49.9772 47.5069 49.9306 47.6118C49.884 47.7166 49.8593 47.8293 49.8579 47.9434V258.063C49.8579 258.538 50.2648 258.919 50.7702 258.919H165.067C165.185 258.921 165.303 258.901 165.413 258.859C165.523 258.816 165.623 258.754 165.708 258.674C165.793 258.594 165.861 258.499 165.907 258.394C165.954 258.289 165.978 258.176 165.979 258.062V47.9422C165.978 47.8281 165.953 47.7155 165.906 47.6107C165.86 47.5059 165.792 47.411 165.707 47.3316C165.623 47.2521 165.522 47.1896 165.412 47.1476C165.302 47.1056 165.185 47.0851 165.067 47.087H50.7715H50.7702Z" stroke="black" stroke-width="2.04674" stroke-miterlimit="10"/>
<path fill-rule="evenodd" clip-rule="evenodd" d="M68.8641 54.5386C62.8778 54.5386 58.0576 59.0629 58.0576 64.6807V240.424C58.0576 246.044 62.8778 250.567 68.8641 250.567H146.495C152.482 250.567 157.302 246.044 157.302 240.424V64.6807C157.302 59.0629 152.482 54.5386 146.495 54.5386H68.8641Z" fill="white"/>
<path d="M68.8644 54.5383C62.8775 54.5383 58.0569 59.0628 58.0569 64.6811V240.424C58.0569 246.043 62.8775 250.566 68.8644 250.566H146.496C152.483 250.566 157.303 246.043 157.303 240.424V64.6811C157.303 59.0628 152.483 54.5383 146.496 54.5383H68.8644Z" stroke="black" stroke-width="2.57401" stroke-miterlimit="10" stroke-linejoin="round"/>
<path fill-rule="evenodd" clip-rule="evenodd" d="M70.0653 62.6177C68.0517 62.6177 66.4294 64.1396 66.4294 66.0297V239.074C66.4294 240.965 68.0517 242.486 70.0653 242.486H144.812C146.829 242.486 148.453 240.965 148.453 239.074V66.0297C148.453 64.1396 146.829 62.6177 144.812 62.6177H70.0653Z" fill="black"/>
<path d="M70.0658 62.6182C68.052 62.6182 66.4309 64.1397 66.4309 66.03V239.074C66.4309 240.964 68.052 242.487 70.0658 242.487H144.814C146.829 242.487 148.453 240.964 148.453 239.074V66.03C148.453 64.1397 146.829 62.6169 144.814 62.6169H70.0658V62.6182Z" stroke="black" stroke-width="2.24119" stroke-miterlimit="10" stroke-linejoin="round"/>
<path fill-rule="evenodd" clip-rule="evenodd" d="M12.8752 11.9795H21.5087L12.9582 19.9835L12.8752 11.9795Z" fill="black"/>
<path d="M12.8765 11.9792H21.5095L12.9607 19.9842L12.8778 11.9792H12.8765Z" stroke="black" stroke-width="1.07697" stroke-miterlimit="10"/>
<path fill-rule="evenodd" clip-rule="evenodd" d="M204.752 12.0835H196.118L204.667 20.0875L204.752 12.0835Z" fill="black"/>
<path d="M204.751 12.083H196.118L204.669 20.088L204.751 12.083V12.083Z" stroke="black" stroke-width="1.07697" stroke-miterlimit="10"/>
<path fill-rule="evenodd" clip-rule="evenodd" d="M204.907 293.378H196.272L204.824 285.376L204.907 293.38V293.378Z" fill="black"/>
<path d="M204.908 293.38H196.273L204.825 285.377L204.908 293.38Z" stroke="black" stroke-width="1.07697" stroke-miterlimit="10"/>
<path fill-rule="evenodd" clip-rule="evenodd" d="M12.8689 293.338H21.5024L12.9531 285.334L12.8689 293.338Z" fill="black"/>
<path d="M12.8702 293.338H21.5032L12.9531 285.334L12.8689 293.338H12.8702Z" stroke="black" stroke-width="1.07697" stroke-miterlimit="10"/>
<path fill-rule="evenodd" clip-rule="evenodd" d="M16.1821 164.002V171.67L45.2455 157.332V149.474L16.1821 164.002Z" fill="black"/>
<path d="M16.1824 164.002V171.671L45.246 157.331V149.474L16.1824 164.001V164.002Z" stroke="black" stroke-width="1.64288" stroke-miterlimit="10" stroke-linecap="round" stroke-linejoin="round"/>
<path fill-rule="evenodd" clip-rule="evenodd" d="M16.3298 178.504V186.172L45.3932 171.83V163.975L16.3298 178.504Z" fill="black"/>
<path d="M16.3301 178.503V186.172L45.3937 171.831V163.975L16.3301 178.503Z" stroke="black" stroke-width="1.64288" stroke-miterlimit="10" stroke-linecap="round" stroke-linejoin="round"/>
<path fill-rule="evenodd" clip-rule="evenodd" d="M16.0369 171.708V164.039L45.1002 178.381V186.236L16.0369 171.708Z" fill="white"/>
<path d="M16.0371 171.709V164.04L45.1008 178.38V186.237L16.0371 171.709V171.709Z" stroke="black" stroke-width="1.64288" stroke-miterlimit="10" stroke-linecap="round" stroke-linejoin="round"/>
<path fill-rule="evenodd" clip-rule="evenodd" d="M16.3945 149.301V156.97L45.4579 142.628V134.774L16.3945 149.301Z" fill="black"/>
<path d="M16.3948 149.301V156.97L45.4584 142.628V134.773L16.3948 149.301Z" stroke="black" stroke-width="1.64288" stroke-miterlimit="10" stroke-linecap="round" stroke-linejoin="round"/>
<path fill-rule="evenodd" clip-rule="evenodd" d="M16.2559 157.284V149.618L45.3192 163.958V171.814L16.2559 157.284Z" fill="white"/>
<path d="M16.2562 157.285V149.618L45.3211 163.957V171.815L16.2549 157.285H16.2562Z" stroke="black" stroke-width="1.64288" stroke-miterlimit="10" stroke-linecap="round" stroke-linejoin="round"/>
<path fill-rule="evenodd" clip-rule="evenodd" d="M16.2468 134.799V142.469L45.3102 128.128V120.271L16.2468 134.799Z" fill="black"/>
<path d="M16.2471 134.799V142.468L45.3107 128.128V120.271L16.2471 134.799V134.799Z" stroke="black" stroke-width="1.64288" stroke-miterlimit="10" stroke-linecap="round" stroke-linejoin="round"/>
<path fill-rule="evenodd" clip-rule="evenodd" d="M16.1018 142.505V134.838L45.1652 149.18V157.034L16.1018 142.505Z" fill="white"/>
<path d="M16.1021 142.505V134.838L45.1657 149.179V157.034L16.1021 142.505V142.505Z" stroke="black" stroke-width="1.64288" stroke-miterlimit="10" stroke-linecap="round" stroke-linejoin="round"/>
<path fill-rule="evenodd" clip-rule="evenodd" d="M16.3208 128.083V120.414L45.3842 134.756V142.61L16.3208 128.083Z" fill="white"/>
<path d="M16.321 128.082V120.415L45.3847 134.757V142.61L16.321 128.083V128.082Z" stroke="black" stroke-width="1.64288" stroke-miterlimit="10" stroke-linecap="round" stroke-linejoin="round"/>
<path fill-rule="evenodd" clip-rule="evenodd" d="M16.3701 193.137V200.804L45.4335 186.466V178.608L16.3701 193.138V193.137Z" fill="black"/>
<path d="M16.3691 193.138V200.804L45.4354 186.466V178.61L16.3691 193.138Z" stroke="black" stroke-width="1.64288" stroke-miterlimit="10" stroke-linecap="round" stroke-linejoin="round"/>
<path fill-rule="evenodd" clip-rule="evenodd" d="M16.0771 186.34V178.675L45.1405 193.014V200.872L16.0771 186.342V186.34Z" fill="white"/>
<path d="M16.0775 186.341V178.673L45.1411 193.013V200.872L16.0762 186.341H16.0775Z" stroke="black" stroke-width="1.64288" stroke-miterlimit="10" stroke-linecap="round" stroke-linejoin="round"/>
<path fill-rule="evenodd" clip-rule="evenodd" d="M16.0747 90.9335V98.5993L45.1381 84.2598V76.4036L16.0747 90.9335Z" fill="black"/>
<path d="M16.075 90.9325V98.5999L45.1386 84.2603V76.4041L16.075 90.9325Z" stroke="black" stroke-width="1.64288" stroke-miterlimit="10" stroke-linecap="round" stroke-linejoin="round"/>
<path fill-rule="evenodd" clip-rule="evenodd" d="M16.2222 105.432V113.103L45.2855 98.7608V90.9033L16.2222 105.433V105.432Z" fill="black"/>
<path d="M16.2224 105.432V113.102L45.2874 98.7613V90.9038L16.2224 105.432Z" stroke="black" stroke-width="1.64288" stroke-miterlimit="10" stroke-linecap="round" stroke-linejoin="round"/>
<path fill-rule="evenodd" clip-rule="evenodd" d="M15.9294 98.6383V90.9712L44.9941 105.311V113.168L15.9307 98.637L15.9294 98.6383Z" fill="white"/>
<path d="M15.9298 98.6386V90.97L44.996 105.31V113.167L15.9285 98.6386H15.9298Z" stroke="black" stroke-width="1.64288" stroke-miterlimit="10" stroke-linecap="round" stroke-linejoin="round"/>
<path fill-rule="evenodd" clip-rule="evenodd" d="M16.2871 76.2294V83.9002L45.3505 69.5581V61.7007L16.2871 76.2306V76.2294Z" fill="black"/>
<path d="M16.2886 76.2289V83.9001L45.3522 69.5566V61.7004L16.2886 76.2289Z" stroke="black" stroke-width="1.64288" stroke-miterlimit="10" stroke-linecap="round" stroke-linejoin="round"/>
<path fill-rule="evenodd" clip-rule="evenodd" d="M16.1484 84.2159V76.5476L45.2118 90.8872V98.7434L16.1484 84.2159Z" fill="white"/>
<path d="M16.1488 84.2153V76.5479L45.2137 90.8875V98.7437L16.1475 84.2153H16.1488Z" stroke="black" stroke-width="1.64288" stroke-miterlimit="10" stroke-linecap="round" stroke-linejoin="round"/>
<path fill-rule="evenodd" clip-rule="evenodd" d="M16.1394 61.7296V69.3979L45.2028 55.0558V47.2021L16.1394 61.7296Z" fill="black"/>
<path d="M16.1396 61.7294V69.3968L45.202 55.0583V47.2021L16.1396 61.7294Z" stroke="black" stroke-width="1.64288" stroke-miterlimit="10" stroke-linecap="round" stroke-linejoin="round"/>
<path fill-rule="evenodd" clip-rule="evenodd" d="M15.9956 69.4354V61.7671L45.059 76.1067V83.9641L15.9956 69.4342V69.4354Z" fill="white"/>
<path d="M15.9958 69.4355V61.7668L45.0595 76.1065V83.964L15.9958 69.4355Z" stroke="black" stroke-width="1.64288" stroke-miterlimit="10" stroke-linecap="round" stroke-linejoin="round"/>
<path fill-rule="evenodd" clip-rule="evenodd" d="M16.2131 55.012V47.3462L45.2765 61.6845V69.5407L16.2131 55.012Z" fill="white"/>
<path d="M16.2134 55.0119V47.3445L45.277 61.6842V69.5404L16.2134 55.0132V55.0119Z" stroke="black" stroke-width="1.64288" stroke-miterlimit="10" stroke-linecap="round" stroke-linejoin="round"/>
<path fill-rule="evenodd" clip-rule="evenodd" d="M16.2639 120.067V127.735L45.3273 113.394V105.54L16.2639 120.067Z" fill="black"/>
<path d="M16.2642 120.068V127.735L45.3278 113.392V105.537L16.2642 120.068Z" stroke="black" stroke-width="1.64288" stroke-miterlimit="10" stroke-linecap="round" stroke-linejoin="round"/>
<path fill-rule="evenodd" clip-rule="evenodd" d="M15.9709 113.271V105.603L45.0343 119.945V127.8L15.9709 113.271Z" fill="white"/>
<path d="M15.9712 113.271V105.604L45.0336 119.944V127.799L15.9712 113.272V113.271Z" stroke="black" stroke-width="1.64288" stroke-miterlimit="10" stroke-linecap="round" stroke-linejoin="round"/>
<path fill-rule="evenodd" clip-rule="evenodd" d="M16.1821 236.872V244.542L45.2455 230.2V222.341L16.1821 236.871V236.872Z" fill="black"/>
<path d="M16.1824 236.872V244.542L45.246 230.199V222.341L16.1824 236.872V236.872Z" stroke="black" stroke-width="1.64288" stroke-miterlimit="10" stroke-linecap="round" stroke-linejoin="round"/>
<path fill-rule="evenodd" clip-rule="evenodd" d="M16.3298 251.373V259.04L45.3932 244.701V236.844L16.3298 251.374V251.373Z" fill="black"/>
<path d="M16.3301 251.374V259.041L45.3937 244.701V236.845L16.3301 251.376V251.374Z" stroke="black" stroke-width="1.64288" stroke-miterlimit="10" stroke-linecap="round" stroke-linejoin="round"/>
<path fill-rule="evenodd" clip-rule="evenodd" d="M16.0369 244.579V236.908L45.1002 251.251V259.108L16.0369 244.579Z" fill="white"/>
<path d="M16.0371 244.58V236.908L45.1008 251.251V259.108L16.0371 244.58V244.58Z" stroke="black" stroke-width="1.64288" stroke-miterlimit="10" stroke-linecap="round" stroke-linejoin="round"/>
<path fill-rule="evenodd" clip-rule="evenodd" d="M16.3945 222.171V229.836L45.4579 215.497V207.642L16.3945 222.171Z" fill="black"/>
<path d="M16.3948 222.171V229.838L45.4584 215.498V207.642L16.3948 222.171Z" stroke="black" stroke-width="1.64288" stroke-miterlimit="10" stroke-linecap="round" stroke-linejoin="round"/>
<path fill-rule="evenodd" clip-rule="evenodd" d="M16.2559 230.154V222.485L45.3192 236.827V244.684L16.2559 230.154Z" fill="white"/>
<path d="M16.2562 230.155V222.485L45.3211 236.829V244.685L16.2549 230.155H16.2562Z" stroke="black" stroke-width="1.64288" stroke-miterlimit="10" stroke-linecap="round" stroke-linejoin="round"/>
<path fill-rule="evenodd" clip-rule="evenodd" d="M16.2468 207.671V215.338L45.3102 200.996V193.142L16.2468 207.672V207.671Z" fill="black"/>
<path d="M16.2471 207.672V215.338L45.3107 200.996V193.142L16.2471 207.672V207.672Z" stroke="black" stroke-width="1.64288" stroke-miterlimit="10" stroke-linecap="round" stroke-linejoin="round"/>
<path fill-rule="evenodd" clip-rule="evenodd" d="M16.1018 215.375V207.707L45.1652 222.048V229.903L16.1018 215.375Z" fill="white"/>
<path d="M16.1021 215.376V207.708L45.1657 222.047V229.904L16.1021 215.376Z" stroke="black" stroke-width="1.64288" stroke-miterlimit="10" stroke-linecap="round" stroke-linejoin="round"/>
<path fill-rule="evenodd" clip-rule="evenodd" d="M16.3208 200.952V193.283L45.3842 207.624V215.48L16.3208 200.952Z" fill="white"/>
<path d="M16.321 200.953V193.284L45.3847 207.624V215.482L16.321 200.953V200.953Z" stroke="black" stroke-width="1.64288" stroke-miterlimit="10" stroke-linecap="round" stroke-linejoin="round"/>
<path fill-rule="evenodd" clip-rule="evenodd" d="M171.65 142.361V134.69L200.713 149.04V156.898L171.65 142.361Z" fill="black"/>
<path d="M171.65 142.362V134.69L200.712 149.04V156.899L171.65 142.362Z" stroke="black" stroke-width="1.64288" stroke-miterlimit="10" stroke-linecap="round" stroke-linejoin="round"/>
<path fill-rule="evenodd" clip-rule="evenodd" d="M171.796 127.852V120.18L200.861 134.53V142.391L171.796 127.852Z" fill="black"/>
<path d="M171.795 127.852V120.179L200.861 134.53V142.39L171.795 127.851V127.852Z" stroke="black" stroke-width="1.64288" stroke-miterlimit="10" stroke-linecap="round" stroke-linejoin="round"/>
<path fill-rule="evenodd" clip-rule="evenodd" d="M171.503 134.652V142.325L200.567 127.976V120.115L171.503 134.652Z" fill="white"/>
<path d="M171.505 134.653V142.324L200.567 127.976V120.115L171.505 134.653Z" stroke="black" stroke-width="1.64288" stroke-miterlimit="10" stroke-linecap="round" stroke-linejoin="round"/>
<path fill-rule="evenodd" clip-rule="evenodd" d="M171.858 157.072V149.399L200.925 163.748V171.611L171.858 157.072Z" fill="black"/>
<path d="M171.86 157.073V149.399L200.926 163.749V171.611L171.86 157.071V157.073Z" stroke="black" stroke-width="1.64288" stroke-miterlimit="10" stroke-linecap="round" stroke-linejoin="round"/>
<path fill-rule="evenodd" clip-rule="evenodd" d="M171.722 149.083V156.754L200.786 142.407V134.546L171.722 149.083Z" fill="white"/>
<path d="M171.723 149.084V156.755L200.786 142.407V134.547L171.723 149.084V149.084Z" stroke="black" stroke-width="1.64288" stroke-miterlimit="10" stroke-linecap="round" stroke-linejoin="round"/>
<path fill-rule="evenodd" clip-rule="evenodd" d="M171.715 171.581V163.909L200.778 178.26V186.12L171.715 171.581Z" fill="black"/>
<path d="M171.715 171.581V163.91L200.779 178.26V186.12L171.715 171.581V171.581Z" stroke="black" stroke-width="1.64288" stroke-miterlimit="10" stroke-linecap="round" stroke-linejoin="round"/>
<path fill-rule="evenodd" clip-rule="evenodd" d="M171.568 163.872V171.544L200.634 157.197V149.335L171.568 163.872Z" fill="white"/>
<path d="M171.568 163.872V171.544L200.634 157.196V149.335L171.568 163.872V163.872Z" stroke="black" stroke-width="1.64288" stroke-miterlimit="10" stroke-linecap="round" stroke-linejoin="round"/>
<path fill-rule="evenodd" clip-rule="evenodd" d="M171.788 178.304V185.977L200.852 171.627V163.765L171.788 178.304Z" fill="white"/>
<path d="M171.789 178.303V185.977L200.852 171.627V163.765L171.789 178.305V178.303Z" stroke="black" stroke-width="1.64288" stroke-miterlimit="10" stroke-linecap="round" stroke-linejoin="round"/>
<path fill-rule="evenodd" clip-rule="evenodd" d="M171.839 113.211V105.537L200.902 119.887V127.747L171.839 113.211Z" fill="black"/>
<path d="M171.839 113.211V105.537L200.903 119.887V127.747L171.839 113.211Z" stroke="black" stroke-width="1.64288" stroke-miterlimit="10" stroke-linecap="round" stroke-linejoin="round"/>
<path fill-rule="evenodd" clip-rule="evenodd" d="M171.542 120.01V127.683L200.608 113.332V105.472L171.542 120.01Z" fill="white"/>
<path d="M171.542 120.009V127.683L200.609 113.333V105.472L171.542 120.009V120.009Z" stroke="black" stroke-width="1.64288" stroke-miterlimit="10" stroke-linecap="round" stroke-linejoin="round"/>
<path fill-rule="evenodd" clip-rule="evenodd" d="M171.54 215.478V207.802L200.605 222.153V230.013L171.54 215.477V215.478Z" fill="black"/>
<path d="M171.541 215.478V207.803L200.607 222.154V230.014L171.541 215.478Z" stroke="black" stroke-width="1.64288" stroke-miterlimit="10" stroke-linecap="round" stroke-linejoin="round"/>
<path fill-rule="evenodd" clip-rule="evenodd" d="M171.69 200.968V193.293L200.753 207.643V215.504L171.69 200.968Z" fill="black"/>
<path d="M171.69 200.968V193.294L200.753 207.643V215.504L171.691 200.968H171.69Z" stroke="black" stroke-width="1.64288" stroke-miterlimit="10" stroke-linecap="round" stroke-linejoin="round"/>
<path fill-rule="evenodd" clip-rule="evenodd" d="M171.398 207.766V215.439L200.462 201.089V193.228L171.398 207.766Z" fill="white"/>
<path d="M171.398 207.767V215.439L200.462 201.091V193.229L171.398 207.767V207.767Z" stroke="black" stroke-width="1.64288" stroke-miterlimit="10" stroke-linecap="round" stroke-linejoin="round"/>
<path fill-rule="evenodd" clip-rule="evenodd" d="M171.752 230.186V222.514L200.817 236.862V244.724L171.753 230.186H171.752Z" fill="black"/>
<path d="M171.753 230.186V222.515L200.817 236.862V244.726L171.753 230.186Z" stroke="black" stroke-width="1.64288" stroke-miterlimit="10" stroke-linecap="round" stroke-linejoin="round"/>
<path fill-rule="evenodd" clip-rule="evenodd" d="M171.616 222.197V229.869L200.679 215.52V207.658L171.616 222.197Z" fill="white"/>
<path d="M171.616 222.196V229.869L200.68 215.521V207.658L171.616 222.197V222.196Z" stroke="black" stroke-width="1.64288" stroke-miterlimit="10" stroke-linecap="round" stroke-linejoin="round"/>
<path fill-rule="evenodd" clip-rule="evenodd" d="M171.607 244.698V237.026L200.67 251.373V259.233L171.607 244.698Z" fill="black"/>
<path d="M171.606 244.698V237.026L200.671 251.374V259.234L171.606 244.698Z" stroke="black" stroke-width="1.64288" stroke-miterlimit="10" stroke-linecap="round" stroke-linejoin="round"/>
<path fill-rule="evenodd" clip-rule="evenodd" d="M171.462 236.987V244.658L200.525 230.308V222.448L171.462 236.987Z" fill="white"/>
<path d="M171.462 236.988V244.658L200.526 230.309V222.449L171.462 236.988V236.988Z" stroke="black" stroke-width="1.64288" stroke-miterlimit="10" stroke-linecap="round" stroke-linejoin="round"/>
<path fill-rule="evenodd" clip-rule="evenodd" d="M171.681 251.42V259.092L200.744 244.743V236.882L171.681 251.42Z" fill="white"/>
<path d="M171.681 251.421V259.092L200.745 244.744V236.882L171.681 251.421V251.421Z" stroke="black" stroke-width="1.64288" stroke-miterlimit="10" stroke-linecap="round" stroke-linejoin="round"/>
<path fill-rule="evenodd" clip-rule="evenodd" d="M171.73 186.324V178.653L200.793 193V200.86L171.73 186.324Z" fill="black"/>
<path d="M171.73 186.323V178.653L200.794 193.001V200.86L171.73 186.323Z" stroke="black" stroke-width="1.64288" stroke-miterlimit="10" stroke-linecap="round" stroke-linejoin="round"/>
<path fill-rule="evenodd" clip-rule="evenodd" d="M171.438 193.125V200.797L200.499 186.447V178.587L171.437 193.125H171.438Z" fill="white"/>
<path d="M171.437 193.126V200.797L200.5 186.447V178.587L171.437 193.126V193.126Z" stroke="black" stroke-width="1.64288" stroke-miterlimit="10" stroke-linecap="round" stroke-linejoin="round"/>
<path fill-rule="evenodd" clip-rule="evenodd" d="M171.65 69.4505V61.7759L200.713 76.1255V83.9867L171.65 69.4505Z" fill="black"/>
<path d="M171.65 69.4491V61.7754L200.712 76.1251V83.9863L171.65 69.4478V69.4491Z" stroke="black" stroke-width="1.64288" stroke-miterlimit="10" stroke-linecap="round" stroke-linejoin="round"/>
<path fill-rule="evenodd" clip-rule="evenodd" d="M171.796 54.9394V47.2661L200.861 61.6157V69.4769L171.796 54.9394Z" fill="black"/>
<path d="M171.795 54.9395V47.2659L200.861 61.6156V69.4768L171.795 54.9395V54.9395Z" stroke="black" stroke-width="1.64288" stroke-miterlimit="10" stroke-linecap="round" stroke-linejoin="round"/>
<path fill-rule="evenodd" clip-rule="evenodd" d="M171.503 61.7384V69.4117L200.567 55.0621V47.2009L171.503 61.7384Z" fill="white"/>
<path d="M171.505 61.7381V69.4118L200.567 55.0621V47.2009L171.505 61.7381Z" stroke="black" stroke-width="1.64288" stroke-miterlimit="10" stroke-linecap="round" stroke-linejoin="round"/>
<path fill-rule="evenodd" clip-rule="evenodd" d="M171.858 84.1596V76.4875L200.925 90.8371V98.6958L171.858 84.1596Z" fill="black"/>
<path d="M171.86 84.159V76.4878L200.926 90.8375V98.6962L171.86 84.159Z" stroke="black" stroke-width="1.64288" stroke-miterlimit="10" stroke-linecap="round" stroke-linejoin="round"/>
<path fill-rule="evenodd" clip-rule="evenodd" d="M171.722 76.1718V83.8439L200.786 69.493V61.6331L171.722 76.1718Z" fill="white"/>
<path d="M171.723 76.1715V83.8439L200.786 69.493V61.6343L171.723 76.1727V76.1715Z" stroke="black" stroke-width="1.64288" stroke-miterlimit="10" stroke-linecap="round" stroke-linejoin="round"/>
<path fill-rule="evenodd" clip-rule="evenodd" d="M171.715 98.6697V90.9963L200.778 105.345V113.206L171.715 98.6684V98.6697Z" fill="black"/>
<path d="M171.715 98.6697V90.9973L200.779 105.345V113.206L171.715 98.6697Z" stroke="black" stroke-width="1.64288" stroke-miterlimit="10" stroke-linecap="round" stroke-linejoin="round"/>
<path fill-rule="evenodd" clip-rule="evenodd" d="M171.568 90.9586V98.632L200.634 84.2824V76.4211L171.568 90.9586Z" fill="white"/>
<path d="M171.568 90.9601V98.6326L200.634 84.2816V76.4204L171.568 90.9601Z" stroke="black" stroke-width="1.64288" stroke-miterlimit="10" stroke-linecap="round" stroke-linejoin="round"/>
<path fill-rule="evenodd" clip-rule="evenodd" d="M171.788 105.391V113.064L200.852 98.7144V90.8545L171.788 105.391Z" fill="white"/>
<path d="M171.789 105.391V113.063L200.852 98.7149V90.855L171.789 105.391Z" stroke="black" stroke-width="1.64288" stroke-miterlimit="10" stroke-linecap="round" stroke-linejoin="round"/>
<path fill-rule="evenodd" clip-rule="evenodd" d="M89.5039 15.0771H81.3538L96.5994 42.3509H104.952L89.5039 15.0771Z" fill="black"/>
<path d="M89.5038 15.0771H81.3528L96.5986 42.3501H104.952L89.5051 15.0771H89.5038Z" stroke="black" stroke-width="1.64288" stroke-miterlimit="10" stroke-linecap="round" stroke-linejoin="round"/>
<path fill-rule="evenodd" clip-rule="evenodd" d="M74.0899 15.2175H65.9385L81.1828 42.49H89.5338L74.0899 15.2175Z" fill="black"/>
<path d="M74.0895 15.2173H65.9385L81.183 42.4902H89.5349L74.0869 15.2173H74.0895Z" stroke="black" stroke-width="1.64288" stroke-miterlimit="10" stroke-linecap="round" stroke-linejoin="round"/>
<path fill-rule="evenodd" clip-rule="evenodd" d="M81.3136 14.9419H89.4638L74.2194 42.2156H65.8684L81.3136 14.9419Z" fill="white"/>
<path d="M81.3138 14.9421H89.4647L74.2202 42.2151H65.8696L81.3138 14.9421V14.9421Z" stroke="black" stroke-width="1.64288" stroke-miterlimit="10" stroke-linecap="round" stroke-linejoin="round"/>
<path fill-rule="evenodd" clip-rule="evenodd" d="M105.134 15.2776H96.9814L112.226 42.5501H120.578L105.133 15.2776H105.134Z" fill="black"/>
<path d="M105.134 15.2771H96.9822L112.227 42.55H120.579L105.136 15.2759L105.134 15.2771Z" stroke="black" stroke-width="1.64288" stroke-miterlimit="10" stroke-linecap="round" stroke-linejoin="round"/>
<path fill-rule="evenodd" clip-rule="evenodd" d="M96.6461 15.1484H104.798L89.5532 42.4209H81.2009L96.6461 15.1484Z" fill="white"/>
<path d="M96.6466 15.1472H104.798L89.5543 42.4214H81.2012L96.6479 15.1472H96.6466Z" stroke="black" stroke-width="1.64288" stroke-miterlimit="10" stroke-linecap="round" stroke-linejoin="round"/>
<path fill-rule="evenodd" clip-rule="evenodd" d="M151.592 15.2651H143.441L158.686 42.5376H167.037L151.592 15.2651Z" fill="black"/>
<path d="M151.592 15.2646H143.441L158.687 42.5376H167.038L151.592 15.2646Z" stroke="black" stroke-width="1.64288" stroke-miterlimit="10" stroke-linecap="round" stroke-linejoin="round"/>
<path fill-rule="evenodd" clip-rule="evenodd" d="M120.548 15.1372H112.398L127.643 42.4135H135.996L120.548 15.1372Z" fill="black"/>
<path d="M120.549 15.1372H112.398L127.644 42.4126H135.997L120.549 15.1372Z" stroke="black" stroke-width="1.64288" stroke-miterlimit="10" stroke-linecap="round" stroke-linejoin="round"/>
<path fill-rule="evenodd" clip-rule="evenodd" d="M112.358 15.002H120.508L105.265 42.2757H96.9131L112.358 15.002Z" fill="white"/>
<path d="M112.359 15.0022H120.509L105.265 42.2764H96.9136L112.359 15.0022Z" stroke="black" stroke-width="1.64288" stroke-miterlimit="10" stroke-linecap="round" stroke-linejoin="round"/>
<path fill-rule="evenodd" clip-rule="evenodd" d="M136.178 15.4028H128.026L143.272 42.6778H151.621L136.176 15.4041L136.178 15.4028Z" fill="black"/>
<path d="M136.177 15.4036H128.026L143.272 42.6765H151.621L136.177 15.4036V15.4036Z" stroke="black" stroke-width="1.64288" stroke-miterlimit="10" stroke-linecap="round" stroke-linejoin="round"/>
<path fill-rule="evenodd" clip-rule="evenodd" d="M127.69 15.2087H135.843L120.596 42.4825H112.247L127.692 15.2087H127.69Z" fill="white"/>
<path d="M127.692 15.2085H135.843L120.598 42.4814H112.249L127.693 15.2085H127.692Z" stroke="black" stroke-width="1.64288" stroke-miterlimit="10" stroke-linecap="round" stroke-linejoin="round"/>
<path fill-rule="evenodd" clip-rule="evenodd" d="M143.4 15.1272H151.553L136.308 42.4034H127.956L143.401 15.1272H143.4Z" fill="white"/>
<path d="M143.401 15.1272H151.552L136.309 42.4026H127.957L143.401 15.1272V15.1272Z" stroke="black" stroke-width="1.64288" stroke-miterlimit="10" stroke-linecap="round" stroke-linejoin="round"/>
<path fill-rule="evenodd" clip-rule="evenodd" d="M167.176 15.3377H159.025L174.271 42.6089H182.621L167.176 15.3364V15.3377Z" fill="black"/>
<path d="M167.177 15.3372H159.026L174.271 42.6101H182.621L167.177 15.3372Z" stroke="black" stroke-width="1.64288" stroke-miterlimit="10" stroke-linecap="round" stroke-linejoin="round"/>
<path fill-rule="evenodd" clip-rule="evenodd" d="M158.735 15.3328H166.885L151.641 42.609H143.289L158.735 15.334V15.3328Z" fill="white"/>
<path d="M158.737 15.3323H166.886L151.642 42.6064H143.29L158.737 15.3323V15.3323Z" stroke="black" stroke-width="1.64288" stroke-miterlimit="10" stroke-linecap="round" stroke-linejoin="round"/>
<path fill-rule="evenodd" clip-rule="evenodd" d="M58.5332 15.2537H50.3831L65.6274 42.5274H73.9771L58.5332 15.2537Z" fill="black"/>
<path d="M58.5338 15.2532H50.3828L65.6287 42.5274H73.9779L58.5338 15.252V15.2532Z" stroke="black" stroke-width="1.64288" stroke-miterlimit="10" stroke-linecap="round" stroke-linejoin="round"/>
<path fill-rule="evenodd" clip-rule="evenodd" d="M43.2681 14.9834H35.1179L50.361 42.2584H58.712L43.2668 14.9847L43.2681 14.9834Z" fill="black"/>
<path d="M43.2684 14.9834H35.1174L50.3633 42.2563H58.7138L43.2684 14.9834Z" stroke="black" stroke-width="1.64288" stroke-miterlimit="10" stroke-linecap="round" stroke-linejoin="round"/>
<path fill-rule="evenodd" clip-rule="evenodd" d="M65.7582 14.9795H73.9083L58.6653 42.2532H50.313L65.7582 14.9795Z" fill="white"/>
<path d="M65.7581 14.9783H73.9091L58.6658 42.2524H50.314L65.7607 14.9783H65.7581Z" stroke="black" stroke-width="1.64288" stroke-miterlimit="10" stroke-linecap="round" stroke-linejoin="round"/>
<path fill-rule="evenodd" clip-rule="evenodd" d="M27.8321 14.9834H19.6819L34.9262 42.2584H43.2772L27.8321 14.9834Z" fill="black"/>
<path d="M27.8334 14.9834H19.6824L34.9269 42.2563H43.2775L27.8334 14.9834Z" stroke="black" stroke-width="1.64288" stroke-miterlimit="10" stroke-linecap="round" stroke-linejoin="round"/>
<path fill-rule="evenodd" clip-rule="evenodd" d="M50.3596 14.9834H58.5111L43.2655 42.2584H34.9158L50.3609 14.9847L50.3596 14.9834Z" fill="white"/>
<path d="M50.3595 14.9834H58.5105L43.2672 42.2563H34.918L50.3595 14.9834Z" stroke="black" stroke-width="1.64288" stroke-miterlimit="10" stroke-linecap="round" stroke-linejoin="round"/>
<path fill-rule="evenodd" clip-rule="evenodd" d="M35.1271 14.9834H43.2772L28.0342 42.2584H19.6819L35.1271 14.9847V14.9834Z" fill="white"/>
<path d="M35.1265 14.9834H43.2775L28.0342 42.2563H19.6824L35.1265 14.9834V14.9834Z" stroke="black" stroke-width="1.64288" stroke-miterlimit="10" stroke-linecap="round" stroke-linejoin="round"/>
<path fill-rule="evenodd" clip-rule="evenodd" d="M182.592 15.1985H174.441L189.688 42.4735H198.037L182.592 15.1985Z" fill="black"/>
<path d="M182.593 15.1973H174.441L189.687 42.4727H198.038L182.593 15.1973V15.1973Z" stroke="black" stroke-width="1.64288" stroke-miterlimit="10" stroke-linecap="round" stroke-linejoin="round"/>
<path fill-rule="evenodd" clip-rule="evenodd" d="M174.402 15.062H182.552L167.308 42.3358H158.953L174.402 15.062Z" fill="white"/>
<path d="M174.404 15.0623H182.553L167.309 42.3352H158.954L174.402 15.0623H174.404Z" stroke="black" stroke-width="1.64288" stroke-miterlimit="10" stroke-linecap="round" stroke-linejoin="round"/>
<path fill-rule="evenodd" clip-rule="evenodd" d="M189.733 15.2688H197.883L182.641 42.5425H174.289L189.733 15.2688Z" fill="white"/>
<path d="M189.734 15.2686H197.885L182.641 42.544H174.29L189.734 15.2698V15.2686Z" stroke="black" stroke-width="1.64288" stroke-miterlimit="10" stroke-linecap="round" stroke-linejoin="round"/>
<path fill-rule="evenodd" clip-rule="evenodd" d="M89.9469 263.142H81.7954L97.0384 290.416H105.391L89.9456 263.142H89.9469Z" fill="black"/>
<path d="M89.9482 263.144H81.7959L97.0392 290.417H105.392L89.9469 263.144H89.9482Z" stroke="black" stroke-width="1.64288" stroke-miterlimit="10" stroke-linecap="round" stroke-linejoin="round"/>
<path fill-rule="evenodd" clip-rule="evenodd" d="M74.5317 263.281H66.3789L81.6245 290.557H89.9768L74.5317 263.281Z" fill="black"/>
<path d="M74.5327 263.282H66.3792L81.625 290.557H89.9769L74.5327 263.282V263.282Z" stroke="black" stroke-width="1.64288" stroke-miterlimit="10" stroke-linecap="round" stroke-linejoin="round"/>
<path fill-rule="evenodd" clip-rule="evenodd" d="M81.754 263.009H89.9068L74.6624 290.281H66.3088L81.754 263.009Z" fill="white"/>
<path d="M81.7545 263.009H89.9081L74.6635 290.282H66.3091L81.7545 263.009V263.009Z" stroke="black" stroke-width="1.64288" stroke-miterlimit="10" stroke-linecap="round" stroke-linejoin="round"/>
<path fill-rule="evenodd" clip-rule="evenodd" d="M105.574 263.343H97.4233L112.668 290.615H121.019L105.574 263.343Z" fill="black"/>
<path d="M105.575 263.344H97.4238L112.668 290.615H121.019L105.576 263.344H105.575Z" stroke="black" stroke-width="1.64288" stroke-miterlimit="10" stroke-linecap="round" stroke-linejoin="round"/>
<path fill-rule="evenodd" clip-rule="evenodd" d="M97.0877 263.214H105.238L89.9935 290.488H81.6438L97.089 263.214H97.0877Z" fill="white"/>
<path d="M97.0883 263.215H105.239L89.9948 290.489H81.6416L97.0883 263.214V263.215Z" stroke="black" stroke-width="1.64288" stroke-miterlimit="10" stroke-linecap="round" stroke-linejoin="round"/>
<path fill-rule="evenodd" clip-rule="evenodd" d="M152.033 263.329H143.881L159.128 290.603H167.48L152.035 263.329H152.033Z" fill="black"/>
<path d="M152.033 263.33H143.882L159.128 290.603H167.481L152.034 263.33H152.033Z" stroke="black" stroke-width="1.64288" stroke-miterlimit="10" stroke-linecap="round" stroke-linejoin="round"/>
<path fill-rule="evenodd" clip-rule="evenodd" d="M120.992 263.203H112.839L128.083 290.478H136.437L120.992 263.203Z" fill="black"/>
<path d="M120.992 263.202H112.84L128.083 290.478H136.437L120.991 263.202H120.992Z" stroke="black" stroke-width="1.64288" stroke-miterlimit="10" stroke-linecap="round" stroke-linejoin="round"/>
<path fill-rule="evenodd" clip-rule="evenodd" d="M112.799 263.069H120.951L105.707 290.341H97.3547L112.799 263.069Z" fill="white"/>
<path d="M112.798 263.069H120.952L105.707 290.342H97.3552L112.798 263.069Z" stroke="black" stroke-width="1.64288" stroke-miterlimit="10" stroke-linecap="round" stroke-linejoin="round"/>
<path fill-rule="evenodd" clip-rule="evenodd" d="M136.62 263.469H128.466L143.713 290.743H152.065L136.62 263.469Z" fill="black"/>
<path d="M136.62 263.47H128.465L143.712 290.744H152.064L136.62 263.47Z" stroke="black" stroke-width="1.64288" stroke-miterlimit="10" stroke-linecap="round" stroke-linejoin="round"/>
<path fill-rule="evenodd" clip-rule="evenodd" d="M128.131 263.275H136.284L121.037 290.545H112.687L128.131 263.274V263.275Z" fill="white"/>
<path d="M128.131 263.275H136.283L121.037 290.548H112.687L128.131 263.275V263.275Z" stroke="black" stroke-width="1.64288" stroke-miterlimit="10" stroke-linecap="round" stroke-linejoin="round"/>
<path fill-rule="evenodd" clip-rule="evenodd" d="M143.842 263.191H151.992L136.752 290.47H128.398L143.843 263.193L143.842 263.191Z" fill="white"/>
<path d="M143.843 263.193H151.994L136.752 290.469H128.399L143.842 263.193H143.843Z" stroke="black" stroke-width="1.64288" stroke-miterlimit="10" stroke-linecap="round" stroke-linejoin="round"/>
<path fill-rule="evenodd" clip-rule="evenodd" d="M167.392 263.487H159.239L174.486 290.762H182.836L167.39 263.487H167.392Z" fill="black"/>
<path d="M167.391 263.488H159.24L174.486 290.762H182.836L167.391 263.488Z" stroke="black" stroke-width="1.64288" stroke-miterlimit="10" stroke-linecap="round" stroke-linejoin="round"/>
<path fill-rule="evenodd" clip-rule="evenodd" d="M159.175 263.399H167.326L152.081 290.673H143.729L159.175 263.399Z" fill="white"/>
<path d="M159.177 263.4H167.327L152.082 290.673H143.73L159.177 263.4Z" stroke="black" stroke-width="1.64288" stroke-miterlimit="10" stroke-linecap="round" stroke-linejoin="round"/>
<path fill-rule="evenodd" clip-rule="evenodd" d="M58.9739 263.32H50.8237L66.0681 290.593H74.4191L58.9739 263.32Z" fill="black"/>
<path d="M58.9745 263.32H50.8235L66.068 290.594H74.4199L58.9745 263.32Z" stroke="black" stroke-width="1.64288" stroke-miterlimit="10" stroke-linecap="round" stroke-linejoin="round"/>
<path fill-rule="evenodd" clip-rule="evenodd" d="M43.4379 263.372H35.2852L50.5308 290.647H58.8818L43.4379 263.372Z" fill="black"/>
<path d="M43.4384 263.373H35.2861L50.532 290.648H58.8825L43.4384 263.373Z" stroke="black" stroke-width="1.64288" stroke-miterlimit="10" stroke-linecap="round" stroke-linejoin="round"/>
<path fill-rule="evenodd" clip-rule="evenodd" d="M66.1988 263.045H74.3489L59.1059 290.32H50.7549L66.2001 263.046L66.1988 263.045Z" fill="white"/>
<path d="M66.2002 263.045H74.3499L59.1067 290.319H50.7561L66.2002 263.045V263.045Z" stroke="black" stroke-width="1.64288" stroke-miterlimit="10" stroke-linecap="round" stroke-linejoin="round"/>
<path fill-rule="evenodd" clip-rule="evenodd" d="M182.806 263.349H174.656L189.899 290.625H198.252L182.807 263.349H182.806Z" fill="black"/>
<path d="M182.807 263.35H174.656L189.9 290.625H198.253L182.806 263.35H182.807Z" stroke="black" stroke-width="1.64288" stroke-miterlimit="10" stroke-linecap="round" stroke-linejoin="round"/>
<path fill-rule="evenodd" clip-rule="evenodd" d="M174.617 263.214H182.767L167.523 290.488H159.168L174.617 263.214Z" fill="white"/>
<path d="M174.617 263.215H182.768L167.524 290.489H159.169L174.616 263.214L174.617 263.215Z" stroke="black" stroke-width="1.64288" stroke-miterlimit="10" stroke-linecap="round" stroke-linejoin="round"/>
<path fill-rule="evenodd" clip-rule="evenodd" d="M189.948 263.419H198.098L182.854 290.693H174.503L189.948 263.419Z" fill="white"/>
<path d="M189.949 263.419H198.099L182.854 290.694H174.503L189.949 263.419Z" stroke="black" stroke-width="1.64288" stroke-miterlimit="10" stroke-linecap="round" stroke-linejoin="round"/>
<path fill-rule="evenodd" clip-rule="evenodd" d="M50.6604 263.096H58.8131L43.5675 290.373H35.2178L50.6604 263.096Z" fill="white"/>
<path d="M50.6613 263.097H58.8123L43.5691 290.374H35.2185L50.6626 263.097H50.6613Z" stroke="black" stroke-width="1.64288" stroke-miterlimit="10" stroke-linecap="round" stroke-linejoin="round"/>
<path fill-rule="evenodd" clip-rule="evenodd" d="M27.8815 263.412H19.73L34.9756 290.684H43.3266L27.8815 263.412Z" fill="black"/>
<path d="M27.8828 263.411H19.7305L34.975 290.685H43.3269L27.8828 263.411V263.411Z" stroke="black" stroke-width="1.64288" stroke-miterlimit="10" stroke-linecap="round" stroke-linejoin="round"/>
<path fill-rule="evenodd" clip-rule="evenodd" d="M35.1051 263.134H43.2579L28.0135 290.41H19.6599L35.1051 263.134Z" fill="white"/>
<path d="M35.1059 263.135H43.2569L28.0136 290.41H19.6592L35.1059 263.135V263.135Z" stroke="black" stroke-width="1.64288" stroke-miterlimit="10" stroke-linecap="round" stroke-linejoin="round"/>
<path d="M216.865 295.164C216.865 299.882 212.866 303.752 207.961 303.752H9.89093C4.99904 303.752 1 299.882 1 295.164V9.58881C1 4.86309 4.99904 1 9.88964 1H207.963C212.867 1 216.867 4.86309 216.867 9.58881V295.164H216.865Z" stroke="black" stroke-width="0.623246"/>
</svg>
