<svg width="218" height="305" viewBox="0 0 218 305" fill="none" xmlns="http://www.w3.org/2000/svg">
<path d="M217 295.411C217 300.131 213.001 304 208.098 304H10.0246C5.13275 304 1.13501 300.131 1.13501 295.411V9.83637C1.13501 5.11065 5.13275 1.24756 10.0246 1.24756H208.095C213 1.24756 216.998 5.11065 216.998 9.83637V295.411H217Z" fill="white" stroke="black" stroke-width="0.623246"/>
<path d="M216.865 295.164C216.865 299.882 212.866 303.752 207.961 303.752H9.89093C4.99904 303.752 1 299.882 1 295.164V9.58881C1 4.86309 4.99904 1 9.88964 1H207.963C212.867 1 216.867 4.86309 216.867 9.58881V295.164H216.865Z" stroke="black" stroke-width="0.623246"/>
<path d="M106.634 89.2754C107.505 86.4564 111.495 86.4564 112.366 89.2754L125.962 133.271C126.35 134.528 127.512 135.385 128.828 135.385H173.131C176.001 135.385 177.233 139.027 174.952 140.769L138.855 168.345C137.856 169.108 137.439 170.413 137.81 171.614L151.536 216.032C152.399 218.823 149.17 221.075 146.849 219.302L111.321 192.161C110.246 191.34 108.754 191.34 107.679 192.161L72.1511 219.302C69.83 221.075 66.6013 218.823 67.4637 216.032L81.1896 171.614C81.5608 170.413 81.1436 169.108 80.1446 168.345L44.0477 140.769C41.7674 139.027 42.9993 135.385 45.8689 135.385H90.1721C91.4878 135.385 92.65 134.528 93.0384 133.271L106.634 89.2754Z" fill="#2563EB"/>
</svg>
