<svg width="218" height="305" viewBox="0 0 218 305" fill="none" xmlns="http://www.w3.org/2000/svg">
<path d="M217.001 295.411C217.001 300.131 213.002 304 208.098 304H10.0251C5.13324 304 1.1355 300.131 1.1355 295.411V9.83637C1.1355 5.11065 5.13324 1.24756 10.0251 1.24756H208.096C213 1.24756 216.998 5.11065 216.998 9.83637V295.411H217.001Z" fill="white" stroke="black" stroke-width="0.623246"/>
<path d="M216.866 295.164C216.866 299.882 212.867 303.752 207.962 303.752H9.89142C4.99953 303.752 1.00049 299.882 1.00049 295.164V9.58881C1.00049 4.86309 4.99953 1 9.89012 1H207.963C212.868 1 216.867 4.86309 216.867 9.58881V295.164H216.866Z" stroke="black" stroke-width="0.623246"/>
<path d="M106.634 89.2754C107.505 86.4564 111.496 86.4564 112.367 89.2754L125.962 133.271C126.351 134.528 127.513 135.385 128.828 135.385H173.132C176.001 135.385 177.233 139.027 174.953 140.769L138.856 168.345C137.857 169.108 137.44 170.413 137.811 171.614L151.537 216.032C152.399 218.823 149.17 221.075 146.849 219.302L111.322 192.161C110.246 191.34 108.755 191.34 107.679 192.161L72.1516 219.302C69.8305 221.075 66.6018 218.823 67.4641 216.032L81.1901 171.614C81.5613 170.413 81.1441 169.108 80.145 168.345L44.0482 140.769C41.7678 139.027 42.9998 135.385 45.8694 135.385H90.1726C91.4883 135.385 92.6505 134.528 93.0389 133.271L106.634 89.2754Z" fill="#16A34A"/>
</svg>
