<svg width="218" height="305" viewBox="0 0 218 305" fill="none" xmlns="http://www.w3.org/2000/svg">
<path d="M217.001 295.411C217.001 300.131 213.002 304 208.098 304H10.0251C5.13324 304 1.1355 300.131 1.1355 295.411V9.83637C1.1355 5.11065 5.13324 1.24756 10.0251 1.24756H208.096C213 1.24756 216.998 5.11065 216.998 9.83637V295.411H217.001Z" fill="white" stroke="black" stroke-width="0.623246"/>
<path d="M216.866 295.164C216.866 299.882 212.867 303.752 207.962 303.752H9.89142C4.99953 303.752 1.00049 299.882 1.00049 295.164V9.58881C1.00049 4.86309 4.99953 1 9.89012 1H207.963C212.868 1 216.867 4.86309 216.867 9.58881V295.164H216.866Z" stroke="black" stroke-width="0.623246"/>
<circle cx="109" cy="153" r="65" fill="#16A34A"/>
</svg>
