<svg width="218" height="305" viewBox="0 0 218 305" fill="none" xmlns="http://www.w3.org/2000/svg">
<path d="M217.001 295.411C217.001 300.131 213.002 304 208.098 304H10.0254C5.13349 304 1.13574 300.131 1.13574 295.411V9.83637C1.13574 5.11065 5.13349 1.24756 10.0254 1.24756H208.096C213.001 1.24756 216.998 5.11065 216.998 9.83637V295.411H217.001Z" fill="white" stroke="black" stroke-width="0.623246"/>
<path d="M216.866 295.164C216.866 299.882 212.867 303.752 207.962 303.752H9.89166C4.99977 303.752 1.00073 299.882 1.00073 295.164V9.58881C1.00073 4.86309 4.99977 1 9.89037 1H207.963C212.868 1 216.867 4.86309 216.867 9.58881V295.164H216.866Z" stroke="black" stroke-width="0.623246"/>
<path d="M106.634 89.2754C107.506 86.4564 111.496 86.4564 112.367 89.2754L125.962 133.271C126.351 134.528 127.513 135.385 128.829 135.385H173.132C176.001 135.385 177.233 139.027 174.953 140.769L138.856 168.345C137.857 169.108 137.44 170.413 137.811 171.614L151.537 216.032C152.399 218.823 149.171 221.075 146.85 219.302L111.322 192.161C110.247 191.34 108.755 191.34 107.68 192.161L72.1518 219.302C69.8308 221.075 66.602 218.823 67.4644 216.032L81.1904 171.614C81.5616 170.413 81.1444 169.108 80.1453 168.345L44.0484 140.769C41.7681 139.027 43 135.385 45.8696 135.385H90.1729C91.4885 135.385 92.6507 134.528 93.0391 133.271L106.634 89.2754Z" fill="#F97316"/>
</svg>
