<svg width="218" height="305" viewBox="0 0 218 305" fill="none" xmlns="http://www.w3.org/2000/svg">
<path d="M217 295.411C217 300.131 213.001 304 208.098 304H10.0246C5.13275 304 1.13501 300.131 1.13501 295.411V9.83637C1.13501 5.11065 5.13275 1.24756 10.0246 1.24756H208.095C213 1.24756 216.998 5.11065 216.998 9.83637V295.411H217Z" fill="white" stroke="black" stroke-width="0.623246"/>
<path d="M216.865 295.164C216.865 299.882 212.866 303.752 207.961 303.752H9.89093C4.99904 303.752 1 299.882 1 295.164V9.58881C1 4.86309 4.99904 1 9.88964 1H207.963C212.867 1 216.867 4.86309 216.867 9.58881V295.164H216.865Z" stroke="black" stroke-width="0.623246"/>
<path d="M106.317 93.3666C107.422 91.1554 110.578 91.1554 111.683 93.3666L171.829 213.658C172.827 215.653 171.376 218 169.146 218H48.8541C46.624 218 45.1735 215.653 46.1708 213.658L106.317 93.3666Z" fill="#DC2626"/>
</svg>
