<svg width="218" height="305" viewBox="0 0 218 305" fill="none" xmlns="http://www.w3.org/2000/svg">
<path d="M217 295.411C217 300.131 213.001 304 208.098 304H10.0246C5.13275 304 1.13501 300.131 1.13501 295.411V9.83637C1.13501 5.11065 5.13275 1.24756 10.0246 1.24756H208.095C213 1.24756 216.998 5.11065 216.998 9.83637V295.411H217Z" fill="white" stroke="black" stroke-width="0.623246"/>
<path d="M216.865 295.164C216.865 299.882 212.866 303.752 207.961 303.752H9.89093C4.99904 303.752 1 299.882 1 295.164V9.58881C1 4.86309 4.99904 1 9.88964 1H207.963C212.867 1 216.867 4.86309 216.867 9.58881V295.164H216.865Z" stroke="black" stroke-width="0.623246"/>
<path d="M105.634 90.2754C106.505 87.4564 110.495 87.4564 111.366 90.2754L124.962 134.271C125.35 135.528 126.512 136.385 127.828 136.385H172.131C175.001 136.385 176.233 140.027 173.952 141.769L137.855 169.345C136.856 170.108 136.439 171.413 136.81 172.614L150.536 217.032C151.399 219.823 148.17 222.075 145.849 220.302L110.321 193.161C109.246 192.34 107.754 192.34 106.679 193.161L71.1511 220.302C68.83 222.075 65.6013 219.823 66.4637 217.032L80.1896 172.614C80.5608 171.413 80.1436 170.108 79.1446 169.345L43.0477 141.769C40.7674 140.027 41.9993 136.385 44.8689 136.385H89.1721C90.4878 136.385 91.65 135.528 92.0384 134.271L105.634 90.2754Z" fill="#DC2626"/>
</svg>
